# Blender v2.90.1 OBJ File: 'Construction barriers.blend'
# www.blender.org
o Cube
v 1.500000 0.000000 0.250000
v -1.500000 0.000000 0.250000
v -1.500000 0.660013 -0.110507
v -1.500000 1.400000 -0.115877
v 1.500000 0.660013 -0.110507
v 1.500000 1.400000 -0.115877
v -1.500000 0.000000 -0.245316
v 1.500000 0.000000 -0.245316
v 1.500000 1.400000 0.105575
v 1.500000 0.660013 0.115494
v -1.500000 0.660013 0.115494
v -1.500000 1.400000 0.105575
v 1.500000 0.001481 0.250000
v -1.500000 0.001481 0.250000
v -1.500000 0.165003 -0.251614
v 1.500000 0.165003 -0.251614
v 1.500000 0.166114 0.256374
v -1.500000 0.166114 0.256374
vt 0.375265 0.750000
vt 0.375000 1.000000
vt 0.375000 0.750000
vt 0.538160 0.849548
vt 0.588600 0.692754
vt 0.673350 0.692755
vt 0.589973 0.689448
vt 0.674724 0.689448
vt 0.725163 0.846242
vt 0.493977 0.589285
vt 0.824595 0.441462
vt 0.824595 0.589285
vt 0.819168 0.690310
vt 0.501915 0.866807
vt 0.819168 0.866807
vt 0.784550 0.438846
vt 0.534549 0.686504
vt 0.534549 0.438846
vt 0.501658 0.497937
vt 0.818911 0.434259
vt 0.818911 0.497937
vt 0.803717 0.689207
vt 0.486463 0.539640
vt 0.486463 0.689207
vt 0.486914 0.479596
vt 0.804167 0.533437
vt 0.804167 0.479596
vt 0.818675 0.689288
vt 0.501422 0.498252
vt 0.501422 0.689288
vt 0.488056 0.690255
vt 0.805309 0.851779
vt 0.805309 0.690255
vt 0.375265 1.000000
vt 0.723904 0.849901
vt 0.538160 0.849901
vt 0.550770 0.810350
vt 0.575220 0.516567
vt 0.686730 0.516567
vt 0.711265 0.810614
vt 0.725163 0.846594
vt 0.539420 0.846594
vt 0.552058 0.807308
vt 0.576593 0.513261
vt 0.688104 0.513261
vt 0.712554 0.807043
vt 0.493977 0.441462
vt 0.501915 0.690310
vt 0.784550 0.686504
vt 0.501658 0.434258
vt 0.803717 0.539640
vt 0.486914 0.533437
vt 0.818675 0.498252
vt 0.488056 0.851779
vn 0.7115 -0.0136 0.7025
vn -0.5773 -0.5773 0.5773
vn 0.5773 -0.5773 0.5773
vn -0.7115 -0.0136 0.7026
vn -0.7380 0.0979 0.6676
vn -0.7405 0.0906 -0.6659
vn 0.7405 0.0906 -0.6659
vn 0.7380 0.0979 0.6676
vn -0.5770 0.5754 -0.5796
vn 0.5781 0.5808 0.5731
vn 0.5770 0.5754 -0.5796
vn 0.5794 -0.5872 -0.5652
vn -0.5794 -0.5872 -0.5652
vn 0.6734 0.0883 -0.7340
vn -0.6734 0.0883 -0.7340
vn -0.5781 0.5808 0.5731
vn -0.6733 0.0882 0.7341
vn 0.6733 0.0882 0.7341
s 1
f 13/1/1 2/2/2 1/3/3
f 14/4/4 11/5/5 3/6/6
f 5/7/7 10/8/8 13/9/1
f 4/10/9 9/11/10 6/12/11
f 5/13/7 4/14/9 6/15/11
f 8/16/12 2/17/2 7/18/13
f 16/19/14 7/20/13 15/21/15
f 10/22/8 12/23/16 11/24/5
f 18/25/17 13/26/1 17/27/18
f 5/28/7 15/29/15 3/30/6
f 11/31/5 17/32/18 10/33/8
f 13/1/1 14/34/4 2/2/2
f 7/35/13 2/36/2 14/4/4
f 14/4/4 18/37/17 11/5/5
f 11/5/5 12/38/16 3/6/6
f 12/38/16 4/39/9 3/6/6
f 3/6/6 15/40/15 7/35/13
f 7/35/13 14/4/4 3/6/6
f 1/41/3 8/42/12 13/9/1
f 8/42/12 16/43/14 5/7/7
f 5/7/7 6/44/11 9/45/10
f 8/42/12 5/7/7 13/9/1
f 10/8/8 17/46/18 13/9/1
f 5/7/7 9/45/10 10/8/8
f 4/10/9 12/47/16 9/11/10
f 5/13/7 3/48/6 4/14/9
f 8/16/12 1/49/3 2/17/2
f 16/19/14 8/50/12 7/20/13
f 10/22/8 9/51/10 12/23/16
f 18/25/17 14/52/4 13/26/1
f 5/28/7 16/53/14 15/29/15
f 11/31/5 18/54/17 17/32/18
o Plane
v -1.382090 1.497506 -0.000000
v 1.382090 1.497506 -0.000000
v -1.382090 2.544068 0.000000
v 1.382090 2.544068 0.000000
vt 0.382858 0.725874
vt 0.012379 0.966243
vt 0.012379 0.725874
vt 0.382858 0.966243
vn 0.0000 0.0000 1.0000
s 1
f 20/55/19 21/56/19 19/57/19
f 20/55/19 22/58/19 21/56/19
o Cylinder_Cylinder.001
v 1.376747 1.457129 -0.023457
v 1.376747 2.560461 -0.023457
v 1.429849 1.457129 -0.007202
v 1.429849 2.560461 -0.007202
v 1.364273 1.457129 0.030659
v 1.364273 2.560461 0.030659
vt 0.990872 0.197178
vt 0.031795 0.300156
vt 0.031795 0.197178
vt 0.992855 0.206271
vt 0.007145 0.312396
vt 0.007145 0.206271
vt 0.883172 0.200886
vt 0.828000 0.296447
vt 0.772828 0.200886
vt 0.974356 0.203028
vt 0.130978 0.299639
vt 0.130978 0.203028
vt 0.836000 0.284291
vt 0.883294 0.202376
vt 0.788706 0.202376
vt 0.990872 0.300156
vt 0.992855 0.312396
vt 0.974356 0.299639
vn -0.4095 0.5737 -0.7093
vn 0.8312 -0.5478 -0.0945
vn -0.4095 -0.5737 -0.7093
vn 0.8312 0.5478 -0.0945
vn -0.4975 -0.5478 0.6726
vn -0.4975 0.5478 0.6726
s 1
f 24/59/20 25/60/21 23/61/22
f 26/62/23 27/63/24 25/64/21
f 26/65/23 24/66/20 28/67/25
f 28/68/25 23/69/22 27/70/24
f 23/71/22 25/72/21 27/73/24
f 24/59/20 26/74/23 25/60/21
f 26/62/23 28/75/25 27/63/24
f 28/68/25 24/76/20 23/69/22
o Cylinder.001_Cylinder.003
v -1.380611 1.457129 0.023457
v -1.380611 2.560461 0.023457
v -1.433714 1.457129 0.007202
v -1.433714 2.560461 0.007202
v -1.368138 1.457129 -0.030659
v -1.368138 2.560461 -0.030659
vt 0.045178 0.204699
vt 0.985488 0.303301
vt 0.985488 0.204699
vt 0.001719 0.208094
vt 0.986281 0.294573
vt 0.986281 0.208094
vt 0.457846 0.130000
vt 0.250000 0.490000
vt 0.042154 0.130000
vt 0.049920 0.207349
vt 0.983413 0.305984
vt 0.983413 0.207349
vt 0.750000 0.490000
vt 0.957846 0.130000
vt 0.542154 0.130000
vt 0.045178 0.303301
vt 0.001719 0.294573
vt 0.049920 0.305984
vn 0.4095 0.5737 0.7093
vn -0.8312 -0.5478 0.0945
vn 0.4095 -0.5737 0.7093
vn -0.8312 0.5478 0.0945
vn 0.4975 -0.5478 -0.6726
vn 0.4975 0.5478 -0.6726
s 1
f 30/77/26 31/78/27 29/79/28
f 32/80/29 33/81/30 31/82/27
f 32/83/29 30/84/26 34/85/31
f 34/86/31 29/87/28 33/88/30
f 29/89/28 31/90/27 33/91/30
f 30/77/26 32/92/29 31/78/27
f 32/80/29 34/93/31 33/81/30
f 34/86/31 30/94/26 29/87/28
o Cube.001_Cube.002
v -1.367821 2.487322 0.009588
v -1.367821 2.566228 0.009588
v -1.367821 2.487322 -0.009588
v -1.367821 2.566228 -0.009588
v 1.367821 2.487322 0.009588
v 1.367821 2.566228 0.009588
v 1.367821 2.487322 -0.009588
v 1.367821 2.566228 -0.009588
vt 0.625000 0.000000
vt 0.375000 0.250000
vt 0.375000 0.000000
vt 0.023376 0.193694
vt 0.952624 0.305639
vt 0.023379 0.305639
vt 0.625000 0.500000
vt 0.375000 0.750000
vt 0.375000 0.500000
vt 0.946702 0.209697
vt 0.053298 0.302969
vt 0.946702 0.302969
vt 0.918609 0.294984
vt 0.033391 0.421683
vt 0.033391 0.294984
vt 0.049348 0.202604
vt 0.950652 0.295396
vt 0.950652 0.202604
vt 0.625000 0.250000
vt 0.952621 0.193694
vt 0.625000 0.750000
vt 0.053298 0.209697
vt 0.918609 0.421683
vt 0.049348 0.295396
vn -0.5773 0.5773 0.5773
vn -0.5773 -0.5773 -0.5773
vn -0.5773 -0.5773 0.5773
vn -0.5773 0.5773 -0.5773
vn 0.5773 -0.5773 -0.5773
vn 0.5773 0.5773 -0.5773
vn 0.5773 -0.5773 0.5773
vn 0.5773 0.5773 0.5773
s 1
f 36/95/32 37/96/33 35/97/34
f 38/98/35 41/99/36 37/100/33
f 42/101/37 39/102/38 41/103/36
f 40/104/39 35/105/34 39/106/38
f 41/107/36 35/108/34 37/109/33
f 38/110/35 40/111/39 42/112/37
f 36/95/32 38/113/35 37/96/33
f 38/98/35 42/114/37 41/99/36
f 42/101/37 40/115/39 39/102/38
f 40/104/39 36/116/32 35/105/34
f 41/107/36 39/117/38 35/108/34
f 38/110/35 36/118/32 40/111/39
o Cube.002_Cube.003
v -1.372423 1.455437 0.009588
v -1.372423 1.534343 0.009588
v -1.369488 1.455437 -0.009588
v -1.369488 1.534343 -0.009588
v 1.366361 1.455437 0.009588
v 1.366361 1.534343 0.009588
v 1.369046 1.455437 -0.009588
v 1.369046 1.534343 -0.009588
vt 0.999769 0.888351
vt 0.666897 0.444521
vt 0.999769 0.444521
vt 0.978599 0.201741
vt 0.023779 0.299872
vt 0.978599 0.299872
vt 0.333564 0.888351
vt 0.666436 0.444521
vt 0.666436 0.888351
vt 0.067868 0.197726
vt 0.969466 0.303146
vt 0.067868 0.303146
vt 0.937413 0.204039
vt 0.235921 0.293585
vt 0.937413 0.293585
vt 0.967375 0.293872
vt 0.077072 0.207573
vt 0.077072 0.293872
vt 0.666897 0.888351
vt 0.023779 0.201741
vt 0.333564 0.444521
vt 0.969466 0.197726
vt 0.235921 0.204039
vt 0.967375 0.207573
vn -0.6235 0.5698 0.5353
vn -0.5280 -0.5857 -0.6149
vn -0.6235 -0.5698 0.5353
vn -0.5280 0.5857 -0.6149
vn 0.6197 -0.5704 -0.5390
vn 0.6197 0.5704 -0.5390
vn 0.5322 -0.5850 0.6119
vn 0.5322 0.5850 0.6119
s 1
f 44/119/40 45/120/41 43/121/42
f 46/122/43 49/123/44 45/124/41
f 50/125/45 47/126/46 49/127/44
f 48/128/47 43/129/42 47/130/46
f 45/131/41 47/132/46 43/133/42
f 46/134/43 48/135/47 50/136/45
f 44/119/40 46/137/43 45/120/41
f 46/122/43 50/138/45 49/123/44
f 50/125/45 48/139/47 47/126/46
f 48/128/47 44/140/40 43/129/42
f 45/131/41 49/141/44 47/132/46
f 46/134/43 44/142/40 48/135/47
o Cylinder.002_Cylinder.005
v 1.043540 1.397285 -0.041347
v 1.043540 1.461609 -0.041347
v 1.086841 1.397285 -0.020673
v 1.086841 1.461609 -0.020673
v 1.086841 1.397285 0.020673
v 1.086841 1.461609 0.020673
v 1.043540 1.397285 0.041347
v 1.043540 1.461609 0.041347
v 1.000239 1.397285 0.020673
v 1.000239 1.461609 0.020673
v 1.000239 1.397285 -0.020673
v 1.000239 1.461609 -0.020673
vt 0.760167 0.195347
vt 0.385167 0.312653
vt 0.385167 0.195347
vt 0.765500 0.210708
vt 0.390500 0.302625
vt 0.390500 0.210708
vt 0.780833 0.197465
vt 0.405833 0.299868
vt 0.405833 0.197465
vt 0.658167 0.205164
vt 0.283167 0.302836
vt 0.283167 0.205164
vt 0.222000 1.082000
vt 0.014154 0.722000
vt 0.429846 0.722000
vt 0.699500 0.194681
vt 0.324500 0.302653
vt 0.324500 0.194681
vt 0.692833 0.189682
vt 0.317833 0.318318
vt 0.317833 0.189682
vt 0.460154 0.690000
vt 0.460154 0.930000
vt 0.875846 0.930000
vt 0.760167 0.312653
vt 0.765500 0.302625
vt 0.780833 0.299868
vt 0.658167 0.302836
vt 0.429846 0.962000
vt 0.014154 0.962000
vt 0.222000 0.602000
vt 0.699500 0.302653
vt 0.692833 0.318318
vt 0.668000 1.050000
vt 0.875846 0.690000
vt 0.668000 0.570000
vn 0.0000 0.6218 -0.7832
vn 0.6738 -0.6044 -0.4249
vn 0.0000 -0.6218 -0.7832
vn 0.6738 0.6044 -0.4249
vn 0.6738 -0.6044 0.4250
vn 0.6738 0.6044 0.4250
vn 0.0000 -0.6218 0.7832
vn 0.0000 0.6218 0.7832
vn -0.6738 -0.6044 0.4250
vn -0.6738 0.6044 0.4250
vn -0.6738 -0.6044 -0.4250
vn -0.6738 0.6044 -0.4250
s 1
f 52/143/48 53/144/49 51/145/50
f 54/146/51 55/147/52 53/148/49
f 56/149/53 57/150/54 55/151/52
f 58/152/55 59/153/56 57/154/54
f 52/155/48 60/156/57 56/157/53
f 60/158/57 61/159/58 59/160/56
f 62/161/59 51/162/50 61/163/58
f 59/164/56 61/165/58 53/166/49
f 52/143/48 54/167/51 53/144/49
f 54/146/51 56/168/53 55/147/52
f 56/149/53 58/169/55 57/150/54
f 58/152/55 60/170/57 59/153/56
f 56/157/53 54/171/51 52/155/48
f 52/155/48 62/172/59 60/156/57
f 60/156/57 58/173/55 56/157/53
f 60/158/57 62/174/59 61/159/58
f 62/161/59 52/175/48 51/162/50
f 61/165/58 51/176/50 53/166/49
f 53/166/49 55/177/52 57/178/54
f 57/178/54 59/164/56 53/166/49
o Cylinder.003_Cylinder.006
v -1.024176 1.397285 -0.041347
v -1.024176 1.461609 -0.041347
v -0.980875 1.397285 -0.020673
v -0.980875 1.461609 -0.020673
v -0.980875 1.397285 0.020673
v -0.980875 1.461609 0.020673
v -1.024176 1.397285 0.041347
v -1.024176 1.461609 0.041347
v -1.067478 1.397285 0.020673
v -1.067478 1.461609 0.020673
v -1.067478 1.397285 -0.020673
v -1.067478 1.461609 -0.020673
vt 0.810988 0.207259
vt 0.502345 0.295408
vt 0.502345 0.207259
vt 0.821500 0.218050
vt 0.446500 0.300617
vt 0.446500 0.218050
vt 0.764833 0.197667
vt 0.389833 0.305000
vt 0.389833 0.197667
vt 0.596167 0.202017
vt 0.221167 0.321983
vt 0.221167 0.202017
vt 0.250000 0.490000
vt 0.042154 0.130000
vt 0.457846 0.130000
vt 0.591500 0.352255
vt 0.216500 0.193079
vt 0.216500 0.352255
vt 0.814094 0.213349
vt 0.584572 0.294651
vt 0.584572 0.213349
vt 0.542154 0.130000
vt 0.542154 0.370000
vt 0.957846 0.370000
vt 0.810988 0.295408
vt 0.821500 0.300617
vt 0.764833 0.305000
vt 0.596167 0.321983
vt 0.457846 0.370000
vt 0.042154 0.370000
vt 0.250000 0.010000
vt 0.591500 0.193079
vt 0.814094 0.294651
vt 0.750000 0.490000
vt 0.957846 0.130000
vt 0.750000 0.010000
vn 0.0000 0.6218 -0.7832
vn 0.6738 -0.6044 -0.4250
vn 0.0000 -0.6218 -0.7832
vn 0.6738 0.6044 -0.4250
vn 0.6738 -0.6044 0.4250
vn 0.6738 0.6044 0.4250
vn 0.0000 -0.6218 0.7832
vn 0.0000 0.6218 0.7832
vn -0.6738 -0.6044 0.4250
vn -0.6738 0.6044 0.4250
vn -0.6738 -0.6044 -0.4250
vn -0.6738 0.6044 -0.4250
s 1
f 64/179/60 65/180/61 63/181/62
f 66/182/63 67/183/64 65/184/61
f 68/185/65 69/186/66 67/187/64
f 70/188/67 71/189/68 69/190/66
f 64/191/60 72/192/69 68/193/65
f 72/194/69 73/195/70 71/196/68
f 74/197/71 63/198/62 73/199/70
f 71/200/68 73/201/70 65/202/61
f 64/179/60 66/203/63 65/180/61
f 66/182/63 68/204/65 67/183/64
f 68/185/65 70/205/67 69/186/66
f 70/188/67 72/206/69 71/189/68
f 68/193/65 66/207/63 64/191/60
f 64/191/60 74/208/71 72/192/69
f 72/192/69 70/209/67 68/193/65
f 72/194/69 74/210/71 73/195/70
f 74/197/71 64/211/60 63/198/62
f 73/201/70 63/212/62 65/202/61
f 65/202/61 67/213/64 69/214/66
f 69/214/66 71/200/68 65/202/61
o Plane.001
v 0.955952 2.565260 -0.013088
v 1.455952 2.565260 -0.013088
v 0.955952 3.065260 -0.013088
v 1.455952 3.065260 -0.013088
v 0.155952 2.565260 -0.013088
v 0.655952 2.565260 -0.013088
v 0.155952 3.065260 -0.013088
v 0.655952 3.065260 -0.013088
v -0.644048 2.565260 -0.013088
v -0.144048 2.565260 -0.013088
v -0.644048 3.065260 -0.013088
v -0.144048 3.065260 -0.013088
v -1.444048 2.565260 -0.013088
v -0.944048 2.565260 -0.013088
v -1.444048 3.065260 -0.013088
v -0.944048 3.065260 -0.013088
vt 0.262017 0.000868
vt 0.113352 0.188130
vt 0.113352 0.000868
vt 0.262017 0.000868
vt 0.113352 0.188130
vt 0.113352 0.000868
vt 0.262017 0.000868
vt 0.113352 0.188130
vt 0.113352 0.000868
vt 0.262017 0.000868
vt 0.113352 0.188130
vt 0.113352 0.000868
vt 0.262017 0.188130
vt 0.262017 0.188130
vt 0.262017 0.188130
vt 0.262017 0.188130
vn 0.0000 0.0000 1.0000
s 1
f 76/215/72 77/216/72 75/217/72
f 80/218/72 81/219/72 79/220/72
f 84/221/72 85/222/72 83/223/72
f 88/224/72 89/225/72 87/226/72
f 76/215/72 78/227/72 77/216/72
f 80/218/72 82/228/72 81/219/72
f 84/221/72 86/229/72 85/222/72
f 88/224/72 90/230/72 89/225/72
o Plane.002
v 0.562798 2.565260 0.019452
v 1.062798 2.565260 0.019452
v 0.562798 3.065260 0.019452
v 1.062798 3.065260 0.019452
v -0.237202 2.565260 0.019452
v 0.262798 2.565260 0.019452
v -0.237202 3.065260 0.019452
v 0.262798 3.065260 0.019452
v -1.037202 2.565260 0.019452
v -0.537202 2.565260 0.019452
v -1.037202 3.065260 0.019452
v -0.537202 3.065260 0.019452
vt 0.262017 0.000868
vt 0.113352 0.188130
vt 0.113352 0.000868
vt 0.262017 0.000868
vt 0.113352 0.188130
vt 0.113352 0.000868
vt 0.247528 0.000868
vt 0.098863 0.188130
vt 0.098863 0.000868
vt 0.262017 0.188130
vt 0.262017 0.188130
vt 0.247528 0.188130
vn 0.0000 0.0000 1.0000
s 1
f 92/231/73 93/232/73 91/233/73
f 96/234/73 97/235/73 95/236/73
f 100/237/73 101/238/73 99/239/73
f 92/231/73 94/240/73 93/232/73
f 96/234/73 98/241/73 97/235/73
f 100/237/73 102/242/73 101/238/73
